<svg width="23" height="23" viewBox="0 0 23 23" fill="none" xmlns="http://www.w3.org/2000/svg">
  <path fill-rule="evenodd" clip-rule="evenodd"
        d="M11.5 2.15332C6.2052 2.15332 1.91666 6.44186 1.91666 11.7367C1.91666 15.9773 4.65989 19.559 8.46926 20.8288C8.94843 20.9127 9.12812 20.6252 9.12812 20.3736C9.12812 20.146 9.11614 19.3913 9.11614 18.5887C6.70832 19.032 6.08541 18.0018 5.89374 17.4627C5.78593 17.1872 5.31874 16.3367 4.91145 16.109C4.57603 15.9294 4.09686 15.4861 4.89947 15.4742C5.65416 15.4622 6.19322 16.1689 6.37291 16.4564C7.23541 17.9059 8.61301 17.4986 9.16405 17.2471C9.24791 16.6242 9.49947 16.2049 9.77499 15.9653C7.6427 15.7257 5.41457 14.8992 5.41457 11.2335C5.41457 10.1913 5.78593 9.32884 6.39687 8.65801C6.30103 8.41842 5.96561 7.43613 6.4927 6.11842C6.4927 6.11842 7.2953 5.86686 9.12812 7.10072C9.89478 6.88509 10.7094 6.77728 11.5239 6.77728C12.3385 6.77728 13.1531 6.88509 13.9198 7.10072C15.7526 5.85488 16.5552 6.11842 16.5552 6.11842C17.0823 7.43613 16.7469 8.41842 16.651 8.65801C17.262 9.32884 17.6333 10.1794 17.6333 11.2335C17.6333 14.9111 15.3932 15.7257 13.2609 15.9653C13.6083 16.2648 13.9078 16.8398 13.9078 17.7382C13.9078 19.02 13.8958 20.0502 13.8958 20.3736C13.8958 20.6252 14.0755 20.9247 14.5547 20.8288C16.4571 20.1866 18.1103 18.9639 19.2815 17.3329C20.4526 15.7018 21.0828 13.7446 21.0833 11.7367C21.0833 6.44186 16.7948 2.15332 11.5 2.15332Z"
        fill="#0BC5EA"/>
</svg>
