<svg width="131" height="32" viewBox="0 0 131 32" fill="none" xmlns="http://www.w3.org/2000/svg">
  <g clip-path="url(#clip0_64_465)">
    <mask id="mask0_64_465" style="mask-type:luminance" maskUnits="userSpaceOnUse" x="0" y="0" width="32" height="32">
      <path d="M31.6641 0H0V31.9875H31.6641V0Z" fill="white"/>
    </mask>
    <g mask="url(#mask0_64_465)">
      <mask id="mask1_64_465" style="mask-type:luminance" maskUnits="userSpaceOnUse" x="0" y="0" width="32" height="32">
        <path d="M31.4563 0H0V31.1307H31.4563V0Z" fill="white"/>
      </mask>
      <g mask="url(#mask1_64_465)">
        <path fill-rule="evenodd" clip-rule="evenodd"
              d="M15.7281 12.6119L7.86243 17.1737L0 12.6119V9.12021L15.7281 0L31.4563 9.12021V12.6119L23.5906 17.1737L15.7281 12.6119ZM3.00777 10.8661L7.86243 13.682L15.7281 9.12021L23.5906 13.682L28.4485 10.8661L15.7281 3.4884L3.00777 10.8661Z"
              fill="white"/>
        <path fill-rule="evenodd" clip-rule="evenodd"
              d="M15.7281 19.5918L7.86243 24.1503L0 19.5918V16.1001L7.86243 20.6618L15.7281 16.1001L23.5906 20.6618L31.4563 16.1001V19.5918L23.5906 24.1503L15.7281 19.5918Z"
              fill="white"/>
        <path fill-rule="evenodd" clip-rule="evenodd"
              d="M15.7282 26.5722L7.86243 31.1307L0 26.5722V23.0806L7.86243 27.6423L15.7282 23.0806L23.5906 27.6423L31.4563 23.0806V26.5722L23.5906 31.1307L15.7282 26.5722Z"
              fill="white"/>
      </g>
    </g>
    <path
      d="M49.6683 18.3923C49.8187 18.6749 49.9626 18.9689 50.1001 19.2741C50.2377 19.5826 50.3688 19.8975 50.4935 20.2187C50.6215 19.8878 50.7558 19.5681 50.8965 19.2597C51.0373 18.948 51.1828 18.6477 51.3331 18.3585L55.5022 10.1081C55.5758 9.96675 55.6525 9.85751 55.7325 9.78041C55.8093 9.70009 55.8956 9.64227 55.9916 9.60692C56.0907 9.56836 56.2011 9.54587 56.3226 9.53946C56.4441 9.53303 56.5865 9.52981 56.7496 9.52981H59.6281V25.8524H56.3034V16.4646C56.3034 16.0084 56.3258 15.5152 56.3706 14.9851L52.0671 23.3752C51.9328 23.6387 51.7521 23.8363 51.525 23.968C51.2979 24.1029 51.0404 24.1704 50.7526 24.1704H50.2393C49.9482 24.1704 49.6891 24.1029 49.462 23.968C49.235 23.8363 49.0542 23.6387 48.9199 23.3752L44.5925 14.9707C44.6245 15.2341 44.6469 15.4943 44.6597 15.7514C44.6756 16.0084 44.6836 16.2461 44.6836 16.4646V25.8524H41.3589V9.52981H44.2375C44.4006 9.52981 44.5429 9.53303 44.6645 9.53946C44.7892 9.54587 44.8995 9.56836 44.9955 9.60692C45.0914 9.64227 45.1794 9.70009 45.2594 9.78041C45.3361 9.85751 45.4113 9.96675 45.4848 10.1081L49.6683 18.3923ZM67.4578 14.055C68.3373 14.055 69.1369 14.1932 69.8566 14.4695C70.5794 14.7458 71.1983 15.1409 71.7133 15.6549C72.2314 16.1722 72.6344 16.7987 72.9222 17.5344C73.2069 18.2702 73.3492 19.0975 73.3492 20.0163C73.3492 20.9416 73.2069 21.7753 72.9222 22.5175C72.6344 23.2628 72.2314 23.8941 71.7133 24.4114C71.1983 24.9318 70.5794 25.3319 69.8566 25.6113C69.1369 25.8908 68.3373 26.0306 67.4578 26.0306C66.575 26.0306 65.7706 25.8908 65.0446 25.6113C64.3186 25.3319 63.6933 24.9318 63.1687 24.4114C62.6474 23.8941 62.2428 23.2628 61.955 22.5175C61.6703 21.7753 61.528 20.9416 61.528 20.0163C61.528 19.0975 61.6703 18.2702 61.955 17.5344C62.2428 16.7987 62.6474 16.1722 63.1687 15.6549C63.6933 15.1409 64.3186 14.7458 65.0446 14.4695C65.7706 14.1932 66.575 14.055 67.4578 14.055ZM67.4578 23.4524C68.2542 23.4524 68.8411 23.1712 69.2185 22.609C69.5927 22.0435 69.7798 21.1858 69.7798 20.0356C69.7798 18.8854 69.5927 18.0308 69.2185 17.4718C68.8411 16.9127 68.2542 16.6332 67.4578 16.6332C66.6422 16.6332 66.0441 16.9127 65.6635 17.4718C65.2861 18.0308 65.0974 18.8854 65.0974 20.0356C65.0974 21.1858 65.2861 22.0435 65.6635 22.609C66.0441 23.1712 66.6422 23.4524 67.4578 23.4524ZM75.2443 9.08163H78.7033V18.479H79.2167C79.431 18.479 79.5957 18.45 79.7108 18.3923C79.826 18.3312 79.9363 18.2219 80.0419 18.0646L82.2296 14.7924C82.3543 14.5995 82.5046 14.4582 82.6805 14.3682C82.8564 14.2783 83.0771 14.2333 83.3426 14.2333H86.5138L83.5201 18.3682C83.3794 18.5609 83.2259 18.7328 83.0595 18.8838C82.8932 19.0316 82.7125 19.1666 82.5174 19.2886C82.8533 19.5424 83.1443 19.8782 83.3906 20.2958L86.6433 25.8524H83.5201C83.261 25.8524 83.0372 25.809 82.8485 25.7222C82.6565 25.6386 82.5014 25.4877 82.3831 25.2692L80.2002 21.1585C80.0946 20.9721 79.9859 20.85 79.8739 20.7922C79.762 20.7375 79.5957 20.7103 79.375 20.7103H78.7033V25.8524H75.2443V9.08163ZM88.097 9.08163H91.5513V18.479H92.0646C92.2821 18.479 92.4484 18.45 92.5636 18.3923C92.6787 18.3312 92.7875 18.2219 92.8898 18.0646L95.0775 14.7924C95.2054 14.5995 95.3558 14.4582 95.5285 14.3682C95.7044 14.2783 95.9267 14.2333 96.1953 14.2333H99.3617L96.3729 18.3682C96.2321 18.5609 96.077 18.7328 95.9075 18.8838C95.7412 19.0316 95.5621 19.1666 95.3702 19.2886C95.7028 19.5424 95.9922 19.8782 96.2385 20.2958L99.4961 25.8524H96.3729C96.1106 25.8524 95.8851 25.809 95.6964 25.7222C95.5077 25.6386 95.3542 25.4877 95.2358 25.2692L93.0481 21.1585C92.9426 20.9721 92.8354 20.85 92.7267 20.7922C92.6147 20.7375 92.4468 20.7103 92.2229 20.7103H91.5513V25.8524H88.097V9.08163ZM101.055 14.2333H104.514V25.8524H101.055V14.2333ZM104.917 11.0527C104.917 11.329 104.861 11.5876 104.749 11.8285C104.637 12.0727 104.486 12.2863 104.294 12.4695C104.099 12.6526 103.873 12.7972 103.617 12.9032C103.361 13.0125 103.088 13.067 102.797 13.067C102.515 13.067 102.251 13.0125 102.005 12.9032C101.759 12.7972 101.541 12.6526 101.353 12.4695C101.164 12.2863 101.015 12.0727 100.907 11.8285C100.798 11.5876 100.743 11.329 100.743 11.0527C100.743 10.7667 100.798 10.5016 100.907 10.2575C101.015 10.0101 101.164 9.79326 101.353 9.60692C101.541 9.42058 101.759 9.2744 102.005 9.16838C102.251 9.06557 102.515 9.01416 102.797 9.01416C103.088 9.01416 103.361 9.06557 103.617 9.16838C103.873 9.2744 104.099 9.42058 104.294 9.60692C104.486 9.79326 104.637 10.0101 104.749 10.2575C104.861 10.5016 104.917 10.7667 104.917 11.0527ZM111.274 25.8524H107.815V16.6187L107.057 16.4646C106.798 16.4035 106.589 16.3104 106.429 16.1851C106.269 16.0566 106.189 15.8686 106.189 15.6212V14.2574H107.815V13.5923C107.815 12.9305 107.921 12.3297 108.132 11.79C108.346 11.2534 108.651 10.794 109.048 10.4118C109.448 10.0326 109.934 9.73865 110.507 9.52981C111.079 9.31777 111.728 9.21175 112.454 9.21175C112.739 9.21175 113.001 9.22942 113.241 9.26476C113.484 9.29689 113.735 9.3515 113.994 9.42861L113.927 11.1201C113.921 11.239 113.89 11.337 113.836 11.4141C113.779 11.4944 113.71 11.5587 113.63 11.6069C113.547 11.6551 113.455 11.6904 113.356 11.7129C113.254 11.7354 113.155 11.7466 113.059 11.7466C112.755 11.7466 112.483 11.7755 112.243 11.8334C112.007 11.8944 111.808 12.002 111.648 12.1563C111.488 12.3072 111.367 12.508 111.284 12.7587C111.204 13.0093 111.164 13.3257 111.164 13.708V14.2574H113.884V16.6332H111.274V25.8524ZM126.286 14.2333L120.107 28.8643C120.004 29.0956 119.878 29.2659 119.728 29.3751C119.58 29.4843 119.344 29.5389 119.017 29.5389H116.427L118.658 24.8307L114.042 14.2333H117.098C117.364 14.2333 117.572 14.2928 117.722 14.4116C117.869 14.5305 117.973 14.6735 118.034 14.8405L119.929 19.8476C120.108 20.3103 120.254 20.7729 120.366 21.2356C120.439 20.9978 120.521 20.7632 120.61 20.5319C120.7 20.3006 120.785 20.0645 120.865 19.8235L122.587 14.8405C122.644 14.667 122.761 14.5225 122.937 14.4068C123.11 14.2912 123.297 14.2333 123.498 14.2333H126.286Z"
      fill="white"/>
  </g>
  <defs>
    <clipPath id="clip0_64_465">
      <rect width="131" height="31.9875" fill="white"/>
    </clipPath>
  </defs>
</svg>
